<?xml version="1.0" encoding="utf-8"?>
<!-- Generator: Adobe Illustrator 23.1.1, SVG Export Plug-In . SVG Version: 6.00 Build 0)  -->
<svg version="1.1" id="dodger-blue" xmlns="http://www.w3.org/2000/svg" xmlns:xlink="http://www.w3.org/1999/xlink" x="0px"
	 y="0px" viewBox="0 0 600 600" style="enable-background:new 0 0 600 600;" xml:space="preserve">
<style type="text/css">
	.st0{fill:#1591F0;stroke:#1591F0;stroke-width:5;stroke-linecap:round;stroke-miterlimit:10;}
</style>
<g transform="translate(300,300)">
	<path class="st0 animation" d="M64.8-127.7c29.4,4.1,64.4,14.3,92.6,38.5C185.6-64.9,207-26.5,201.9,8s-36.7,65.1-67.2,91.8
		c-30.6,26.7-60.2,49.5-88.5,42.3C17.8,135-9.5,97.9-43.6,86.7s-75,3.6-74.7-9.8S-76.5,22-95-18.9s-97-81.4-106.6-102.7
		c-9.5-21.3,49.9-23.4,93-21.3c43.1,2.2,69.7,8.7,95,10.9C11.6-129.7,35.4-131.7,64.8-127.7z"/>
</g>
</svg>
