<?xml version="1.0" encoding="utf-8"?>
<!-- Generator: Adobe Illustrator 23.1.1, SVG Export Plug-In . SVG Version: 6.00 Build 0)  -->
<svg version="1.1" id="ripe-lemon" xmlns="http://www.w3.org/2000/svg" xmlns:xlink="http://www.w3.org/1999/xlink" x="0px" y="0px"
	 viewBox="0 0 600 600" style="enable-background:new 0 0 600 600;" xml:space="preserve">
<style type="text/css">
	.st0{fill:#F4D90F;stroke:#F4D90F;stroke-width:5;stroke-linecap:round;stroke-miterlimit:10;}
</style>
<g transform="translate(300,300)">
	<path class="st0 animation" d="M114.9-201.3c37.9,15.5,59.8,64.7,76.1,112.9c16.2,48.1,26.9,95.1,6.8,127.8c-20.2,32.7-71.1,51.1-104,80.2
		c-32.8,29.1-47.6,69-73.7,82.1c-26.1,13.1-63.6-0.7-108-6.5c-44.3-5.9-95.7-3.9-113.2-28.6c-17.5-24.8-1.3-76.3,9.3-116.4
		c10.7-40.1,15.8-68.9,25.3-98.1c9.5-29.3,23.4-59,46.8-81.2c23.3-22.1,56.1-36.8,99.4-53.2C23.1-198.7,77-216.9,114.9-201.3z"/>
</g>
</svg>
