<?xml version="1.0" encoding="utf-8"?>
<!-- Generator: Adobe Illustrator 23.1.1, SVG Export Plug-In . SVG Version: 6.00 Build 0)  -->
<svg version="1.1" id="deep-blush" xmlns="http://www.w3.org/2000/svg" xmlns:xlink="http://www.w3.org/1999/xlink" x="0px" y="0px"
	 viewBox="0 0 600 600" style="enable-background:new 0 0 600 600;" xml:space="preserve">
<style type="text/css">
	.st0{fill:#E97D82;stroke:#E97D82;stroke-width:5;stroke-linecap:round;stroke-miterlimit:10;}
</style>
<g transform="translate(300,300)">
	<path class="st0 animation" d="M154.2-213.5c27.5,14.7,40.2,55.7,40.7,91.9c0.5,36.3-11.1,67.7-6.3,108.4c4.7,40.6,25.9,90.5,16.3,128.7
		c-9.6,38.3-50,65.1-96,83.6c-46.1,18.4-97.7,28.7-143,16c-45.3-12.7-84.2-48.4-117.6-88.2C-185,87.1-212.8,43.2-206.4,2.4
		c6.5-40.9,47.1-78.8,75.5-114.6s44.4-69.5,71.1-84.6c26.7-15.2,64-11.8,103.9-15.8C84-216.7,126.6-228.2,154.2-213.5z"/>
</g>
</svg>
