<?xml version="1.0" encoding="utf-8"?>
<!-- Generator: Adobe Illustrator 23.1.1, SVG Export Plug-In . SVG Version: 6.00 Build 0)  -->
<svg version="1.1" id="lemon" xmlns="http://www.w3.org/2000/svg" xmlns:xlink="http://www.w3.org/1999/xlink" x="0px" y="0px"
	 viewBox="0 0 600 600" style="enable-background:new 0 0 600 600;" xml:space="preserve">
<style type="text/css">
	.st0{fill:#FBE208;stroke:#FBE208;stroke-width:5;stroke-linecap:round;stroke-miterlimit:10;}
</style>
<g transform="translate(300,300)">
	<path class="st0 animation" d="M19.4-115.2c42.6-15.3,106.9-21.6,143.1,1.3c36.3,23,44.4,75.3,19.1,109.7c-25.3,34.5-84.2,50.9-117,91.4
		C31.7,127.7,24.9,192.1,2.8,193.8c-22.2,1.7-59.6-59.4-89.5-92.7c-29.8-33.4-52.1-38.9-69.9-52.3c-17.9-13.3-31.5-34.5-35.5-57.5
		s1.5-47.8-0.4-89.5s-11.3-100.2,8.7-95.3c20,5,69.4,73.5,104.6,95.7C-44.1-75.7-23.2-99.9,19.4-115.2z"/>
</g>
</svg>
