<?xml version="1.0" encoding="utf-8"?>
<!-- Generator: Adobe Illustrator 23.1.1, SVG Export Plug-In . SVG Version: 6.00 Build 0)  -->
<svg version="1.1" id="candlelight" xmlns="http://www.w3.org/2000/svg" xmlns:xlink="http://www.w3.org/1999/xlink" x="0px"
	 y="0px" viewBox="0 0 600 600" style="enable-background:new 0 0 600 600;" xml:space="preserve">
<style type="text/css">
	.st0{fill:#FBDA1C;stroke:#FBDA1C;stroke-width:5;stroke-linecap:round;stroke-miterlimit:10;}
</style>
<g transform="translate(300,300)">
	<path class="st0 animation" d="M112.3-124.9c23.3,37.3,25.5,85.3,34.1,124.4c8.6,39,23.6,69.2,16.6,94.1c-7,24.8-35.9,44.3-61.7,57
		c-25.9,12.7-48.6,18.5-69.8,20.8s-40.9,1-50.6-12.1c-9.7-13-9.3-37.9-44.1-48.7c-34.7-10.8-104.6-7.5-101.6-12.3
		c3-4.8,78.8-17.7,114.8-29s32.1-21,33.8-68.2s8.9-132,34.8-161C44.4-189,88.9-162.2,112.3-124.9z"/>
</g>
</svg>
