<?xml version="1.0" encoding="utf-8"?>
<!-- Generator: Adobe Illustrator 23.1.1, SVG Export Plug-In . SVG Version: 6.00 Build 0)  -->
<svg version="1.1" id="supernova" xmlns="http://www.w3.org/2000/svg" xmlns:xlink="http://www.w3.org/1999/xlink" x="0px" y="0px"
	 viewBox="0 0 600 600" style="enable-background:new 0 0 600 600;" xml:space="preserve">
<style type="text/css">
	.st0{fill:#FACA09;stroke:#FACA09;stroke-width:5;stroke-linecap:round;stroke-miterlimit:10;}
</style>
<g transform="translate(300,300)">
	<path class="st0 animation" d="M124.7-189.9c34.7,15.3,62.7,48.1,87,86.8s45,83.4,17.9,105.9c-27,22.5-101.7,22.9-134,59.9
		c-32.2,37-22,110.7-37.9,131.9c-15.9,21.1-57.7-10.2-107-22.1c-49.3-11.8-106.1-4.1-143.4-25.4c-37.4-21.3-55.4-71.5-48-116.5
		c7.5-44.9,40.3-84.6,68.5-118c28.3-33.5,51.9-60.8,81-78.6c29.1-17.9,63.7-26.4,101.7-31.7C48.5-203.1,90-205.2,124.7-189.9z"/>
</g>
</svg>
