<?xml version="1.0" encoding="utf-8"?>
<!-- Generator: Adobe Illustrator 23.1.1, SVG Export Plug-In . SVG Version: 6.00 Build 0)  -->
<svg version="1.1" id="geraldine" xmlns="http://www.w3.org/2000/svg" xmlns:xlink="http://www.w3.org/1999/xlink" x="0px" y="0px"
	 viewBox="0 0 600 600" style="enable-background:new 0 0 600 600;" xml:space="preserve">
<style type="text/css">
	.st0{fill:#F78C86;stroke:#F78C86;stroke-width:5;stroke-linecap:round;stroke-miterlimit:10;}
</style>
<g transform="translate(300,300)">
	<path class="st0 animation" d="M38.1-104c27.5,1.6,65.4,2.9,95.9,21.7c30.4,18.8,53.4,55,42.6,82c-10.8,26.9-55.4,44.5-89.3,56
		s-57.2,17-80.6,25.7c-23.4,8.8-47.1,21-75.5,24.2c-28.5,3.2-61.7-2.6-83.8-21.7c-22.1-19-32.9-51.3-23-77.8
		c9.9-26.4,40.7-47,62.3-62.6C-91.8-72-79.4-82.4-65.9-90.4S-37.8-104-22-105.8C-6.3-107.6,10.7-105.7,38.1-104z"/>
</g>
</svg>
