<?xml version="1.0" encoding="utf-8"?>
<!-- Generator: Adobe Illustrator 23.1.1, SVG Export Plug-In . SVG Version: 6.00 Build 0)  -->
<svg version="1.1" id="periwinkle" xmlns="http://www.w3.org/2000/svg" xmlns:xlink="http://www.w3.org/1999/xlink" x="0px" y="0px"
	 viewBox="0 0 600 600" style="enable-background:new 0 0 600 600;" xml:space="preserve">
<style type="text/css">
	.st0{fill:#CBDBFE;stroke:#CBDBFE;stroke-width:5;stroke-linecap:round;stroke-miterlimit:10;}
</style>
<g transform="translate(300,300)">
	<path class="st0 animation" d="M79.9-122.4c35.4,12,91.8,2.3,109.1,17.2s-4.5,54.3-24.4,84.1c-19.8,29.7-37.8,49.7-50,88.2
		c-12.2,38.6-18.8,95.6-41.8,107.2c-22.9,11.5-62.4-22.4-103.3-39.6c-41-17.3-83.4-18-96.5-40.1c-13.1-22.2,3.2-65.9-12.5-110.9
		s-63.3-91.3-54.7-112.7c8.5-21.5,73.3-18.1,117.6-26c44.2-8,68-27.3,87.2-20.1C29.8-168,44.4-134.4,79.9-122.4z"/>
</g>
</svg>
