<?xml version="1.0" encoding="utf-8"?>
<!-- Generator: Adobe Illustrator 23.1.1, SVG Export Plug-In . SVG Version: 6.00 Build 0)  -->
<svg version="1.1" id="apricot-peach" xmlns="http://www.w3.org/2000/svg" xmlns:xlink="http://www.w3.org/1999/xlink" x="0px"
	 y="0px" viewBox="0 0 600 600" style="enable-background:new 0 0 600 600;" xml:space="preserve">
<style type="text/css">
	.st0{fill:#FBD7BA;stroke:#FBD7BA;stroke-width:5;stroke-linecap:round;stroke-miterlimit:10;}
</style>
<g transform="translate(300,300)">
	<path class="st0 animation" d="M124.3-180.8c43.8,14,81.5,51.7,66.9,92c-14.6,40.4-81.4,83.4-89.4,134.4c-8.1,51,42.7,110,38.1,128.3
		s-64.5-4-108.6-6.4C-12.9,165.2-41.4,182.8-75,187c-33.7,4.3-72.6-4.7-96.2-28.7s-31.9-63.1-11.8-90.7
		c20.1-27.7,68.7-43.9,79.3-81.8c10.7-37.8-16.6-97.2-8.9-127.6c7.8-30.5,50.5-32.1,96.8-37.7C30.5-185.1,80.4-194.8,124.3-180.8z"
		/>
</g>
</svg>
