<?xml version="1.0" encoding="utf-8"?>
<!-- Generator: Adobe Illustrator 23.1.1, SVG Export Plug-In . SVG Version: 6.00 Build 0)  -->
<svg version="1.1" id="cosmos" xmlns="http://www.w3.org/2000/svg" xmlns:xlink="http://www.w3.org/1999/xlink" x="0px" y="0px"
	 viewBox="0 0 600 600" style="enable-background:new 0 0 600 600;" xml:space="preserve">
<style type="text/css">
	.st0{fill:#FECECD;stroke:#FECECD;stroke-width:5;stroke-linecap:round;stroke-miterlimit:10;}
</style>
<g transform="translate(300,300)">
	<path class="st0 animation" d="M72.7-140.2c21.6,18.4,44.6,29.8,42.7,46.6c-1.9,16.7-28.8,38.7-25.7,69.9C92.9,7.5,126.1,48,129.1,84.6
		c3,36.5-24.2,69.2-60.5,87.5c-36.4,18.3-81.8,22.1-112.9,1.7s-47.9-65-63.6-100.7c-15.8-35.7-30.5-62.5-14.6-81.8
		c16-19.2,62.6-30.8,77.7-53.8s-1.2-57.4,2.9-83.7s28.6-44.5,50.8-41C31.2-183.7,51.2-158.5,72.7-140.2z"/>
</g>
</svg>
