<?xml version="1.0" encoding="utf-8"?>
<!-- Generator: Adobe Illustrator 23.1.1, SVG Export Plug-In . SVG Version: 6.00 Build 0)  -->
<svg version="1.1" id="anakiwa" xmlns="http://www.w3.org/2000/svg" xmlns:xlink="http://www.w3.org/1999/xlink" x="0px" y="0px"
	 viewBox="0 0 600 600" style="enable-background:new 0 0 600 600;" xml:space="preserve">
<style type="text/css">
	.st0{fill:#A8E9FD;stroke:#A8E9FD;stroke-width:5;stroke-linecap:round;stroke-miterlimit:10;}
</style>
<g transform="translate(300,300)">
	<path class="st0 animation" d="M115.8-158.8c18.5,10.4,22.3,45.1,21.8,73.2c-0.6,28.1-5.6,49.6,3.5,82c9.1,32.3,32.2,75.5,26.2,107.3
		c-6,31.7-41.1,52.1-82.5,75c-41.3,23-88.8,48.5-120,32.8s-46-72.7-73.9-113.6c-28-40.9-69.2-65.5-57.1-88
		c12.1-22.5,77.3-42.8,93-89.3c15.7-46.6-18.2-119.3-9.1-134c9.1-14.6,61.2,28.7,103.8,43.4C64.2-155.2,97.3-169.2,115.8-158.8z"/>
</g>
</svg>
