<?xml version="1.0" encoding="utf-8"?>
<!-- Generator: Adobe Illustrator 23.1.1, SVG Export Plug-In . SVG Version: 6.00 Build 0)  -->
<svg version="1.1" id="classic-rose" xmlns="http://www.w3.org/2000/svg" xmlns:xlink="http://www.w3.org/1999/xlink" x="0px"
	 y="0px" viewBox="0 0 600 600" style="enable-background:new 0 0 600 600;" xml:space="preserve">
<style type="text/css">
	.st0{fill:#FBD0DD;stroke:#FBD0DD;stroke-width:5;stroke-linecap:round;stroke-miterlimit:10;}
</style>
<g transform="translate(300,300)">
	<path class="st0 animation" d="M56.5-110.1c36.1,30,97.2,14.2,119.8,26.8c22.5,12.6,6.4,53.6,5.8,100.7c-0.7,47.2,14,100.4-6.2,123.3
		c-20.1,22.8-75.2,15.2-124.5,32.2c-49.4,17-93.2,58.6-113.2,42.2S-78,124.3-105.2,82.6c-27.3-41.7-85.6-50.8-83-65.7
		c2.5-14.8,65.9-35.4,99.9-52.7c33.9-17.3,38.4-31.3,48-73.4c9.5-42.1,24.1-112.4,36.9-109.6C9.4-216,20.4-140.1,56.5-110.1z"/>
</g>
</svg>
