<?xml version="1.0" encoding="utf-8"?>
<!-- Generator: Adobe Illustrator 23.1.1, SVG Export Plug-In . SVG Version: 6.00 Build 0)  -->
<svg version="1.1" id="school-bus-yellow" xmlns="http://www.w3.org/2000/svg" xmlns:xlink="http://www.w3.org/1999/xlink" x="0px"
	 y="0px" viewBox="0 0 600 600" style="enable-background:new 0 0 600 600;" xml:space="preserve">
<style type="text/css">
	.st0{fill:#FCDB05;stroke:#FCDB05;stroke-width:5;stroke-linecap:round;stroke-miterlimit:10;}
</style>
<g transform="translate(300,300)">
	<path class="st0 animation" d="M59.8-155.5c22.3,19.2,30.4,55.4,59.3,90.5c28.8,35.1,78.2,69,80.8,100.7c2.5,31.6-41.9,61.1-83.5,72.9
		s-80.3,5.9-114,14.8c-33.8,8.9-62.5,32.5-102.2,43.7c-39.7,11.1-90.4,9.7-98.8-18.2c-8.4-27.9,25.5-82.3,46.4-118
		c20.9-35.8,28.9-53,32.2-77.2c3.4-24.2,2.2-55.5,15.5-78.8c13.3-23.2,41.3-38.4,73.4-45C1.1-176.7,37.5-174.7,59.8-155.5z"/>
</g>
</svg>
