<?xml version="1.0" encoding="utf-8"?>
<!-- Generator: Adobe Illustrator 23.1.1, SVG Export Plug-In . SVG Version: 6.00 Build 0)  -->
<svg version="1.1" id="java" xmlns="http://www.w3.org/2000/svg" xmlns:xlink="http://www.w3.org/1999/xlink" x="0px" y="0px"
	 viewBox="0 0 600 600" style="enable-background:new 0 0 600 600;" xml:space="preserve">
<style type="text/css">
	.st0{fill:#23DAE7;stroke:#23DAE7;stroke-width:5;stroke-linecap:round;stroke-miterlimit:10;}
</style>
<g transform="translate(300,300)">
	<path class="st0 animation" d="M58.6-118.6c38.7,12.9,100.9,1.1,103.9,14.4S109.3-52.5,87.7-20c-21.5,32.5-8.4,59.1-10.6,86.1
		c-2.2,26.9-19.7,54.1-47.5,75.8c-27.9,21.6-66,37.6-92.1,24.5s-40.3-55.2-57.4-87.7c-17.2-32.4-37.4-55.2-41.8-80.7
		s7.1-53.7,26-71.7c18.8-18.1,45.1-25.9,67.2-46.3c22.2-20.4,40.2-53.3,56.8-51.1C4.8-168.9,20-131.4,58.6-118.6z"/>
</g>
</svg>
