<?xml version="1.0" encoding="utf-8"?>
<!-- Generator: Adobe Illustrator 23.1.1, SVG Export Plug-In . SVG Version: 6.00 Build 0)  -->
<svg version="1.1" id="azure-radiance" xmlns="http://www.w3.org/2000/svg" xmlns:xlink="http://www.w3.org/1999/xlink" x="0px"
	 y="0px" viewBox="0 0 600 600" style="enable-background:new 0 0 600 600;" xml:space="preserve">
<style type="text/css">
	.st0{fill:#118CF0;stroke:#118CF0;stroke-width:5;stroke-linecap:round;stroke-miterlimit:10;}
</style>
<g transform="translate(300,300)">
	<path class="st0 animation" d="M135.7-179.4c37.7,28.1,66.4,66.5,84.8,109c18.5,42.5,26.8,89,14.1,128c-12.7,38.9-46.3,70.3-82.2,84.8
		c-35.9,14.4-74,11.9-109.3,24.9c-35.2,13-67.6,41.4-104.8,47.9c-37.1,6.5-78.9-9-107.3-38.1c-28.5-29.2-43.4-72-56.7-119.2
		c-13.4-47.3-25-98.9-1.5-128c23.4-29.2,82-35.7,126.4-60.7c44.4-25.1,74.7-68.6,113.3-81.5C51.1-225.2,97.9-207.5,135.7-179.4z"/>
</g>
</svg>
 