<?xml version="1.0" encoding="utf-8"?>
<!-- Generator: Adobe Illustrator 23.1.1, SVG Export Plug-In . SVG Version: 6.00 Build 0)  -->
<svg version="1.1" id="french-pass" xmlns="http://www.w3.org/2000/svg" xmlns:xlink="http://www.w3.org/1999/xlink" x="0px"
	 y="0px" viewBox="0 0 600 600" style="enable-background:new 0 0 600 600;" xml:space="preserve">
<style type="text/css">
	.st0{fill:#BBE4FD;stroke:#BBE4FD;stroke-width:5;stroke-linecap:round;stroke-miterlimit:10;}
</style>
<g transform="translate(300,300)">
	<path class="st0 animation" d="M88.8-106.2c44.7,13.4,111.6,7.6,123.5,28.5c11.8,20.8-31.5,68.3-56.8,105.6c-25.3,37.2-32.7,64.2-47.8,88.2
		s-37.8,45.1-62.8,47.5c-25.1,2.4-52.4-13.9-80.4-23.9c-28.1-10-56.9-13.7-94.8-26.6c-37.9-13-85-35.1-83.9-61.2
		c1.1-26,50.3-55.8,76.8-88.6c26.5-32.7,30.4-68.4,49.3-93.6c19-25.2,53-39.8,81.3-30.9C21.5-152.2,44.1-119.6,88.8-106.2z"/>
</g>
</svg>
