<?xml version="1.0" encoding="utf-8"?>
<!-- Generator: Adobe Illustrator 23.1.1, SVG Export Plug-In . SVG Version: 6.00 Build 0)  -->
<svg version="1.1" id="shamrock" xmlns="http://www.w3.org/2000/svg" xmlns:xlink="http://www.w3.org/1999/xlink" x="0px" y="0px"
	 viewBox="0 0 600 600" style="enable-background:new 0 0 600 600;" xml:space="preserve">
<style type="text/css">
	.st0{fill:#32C88A;stroke:#32C88A;stroke-width:5;stroke-linecap:round;stroke-miterlimit:10;}
</style>
<g transform="translate(300,300)">
	<path class="st0 animation" d="M91.8-138.7c25.5,12.2,43.2,40.6,58.5,71c15.3,30.3,28,62.7,37.9,105c9.9,42.3,17.1,94.5-7.9,113.5
		c-24.9,18.9-81.9,4.6-123.6-4.7c-41.7-9.2-68.1-13.4-111-5.7s-102.4,27.3-135,11.5C-222,136.1-227.8,84.8-218,41.6
		s35.2-78.3,62.6-101.9c27.4-23.5,56.8-35.4,83-47.3c26.3-11.9,49.3-23.6,77.4-31.5C33.2-146.9,66.3-150.9,91.8-138.7z"/>
</g>
</svg>
