<?xml version="1.0" encoding="utf-8"?>
<!-- Generator: Adobe Illustrator 23.1.1, SVG Export Plug-In . SVG Version: 6.00 Build 0)  -->
<svg version="1.1" id="reef" xmlns="http://www.w3.org/2000/svg" xmlns:xlink="http://www.w3.org/1999/xlink" x="0px" y="0px"
	 viewBox="0 0 600 600" style="enable-background:new 0 0 600 600;" xml:space="preserve">
<style type="text/css">
	.st0{fill:#BDFE9D;stroke:#BDFE9D;stroke-width:5;stroke-linecap:round;stroke-miterlimit:10;}
</style>
<g transform="translate(300,300)">
	<path class="st0 animation" d="M97.4-185.1c32.2,22,60.4,48.7,81.8,82.4s36,74.4,36.7,117.6c0.8,43.1-12.3,88.8-39.6,124.5
		C149,175.2,107.6,201,63.1,212.1c-44.5,11-92,7.1-124.8-16.4s-50.9-66.7-82.2-100c-31.3-33.4-75.8-56.8-71.8-82.3
		c4-25.6,56.4-53.1,86.9-78.6c30.4-25.6,38.9-49,55.6-78.1c16.7-29,41.5-63.7,72-72.4C29.2-224.4,65.3-207.1,97.4-185.1z"/>
</g>
</svg>
