<?xml version="1.0" encoding="utf-8"?>
<!-- Generator: Adobe Illustrator 23.1.1, SVG Export Plug-In . SVG Version: 6.00 Build 0)  -->
<svg version="1.1" id="royal-blue" xmlns="http://www.w3.org/2000/svg" xmlns:xlink="http://www.w3.org/1999/xlink" x="0px" y="0px"
	 viewBox="0 0 600 600" style="enable-background:new 0 0 600 600;" xml:space="preserve">
<style type="text/css">
	.st0{fill:#3E79E7;stroke:#3E79E7;stroke-width:5;stroke-linecap:round;stroke-miterlimit:10;}
</style>
<g transform="translate(300,300)">
	<path class="st0 animation" d="M144.1-195.8c38.4,23,70.8,57,82.1,96.3s1.6,83.9-8.4,126c-10.1,42.1-20.4,81.6-42.3,116.2
		c-21.8,34.7-55.3,64.6-93.8,74.6s-82,0.1-123.8-13.2s-82-30-115.7-58.3c-33.8-28.2-61.1-68-70.1-112.1
		c-9.1-44.1,0.2-92.6,33.8-114.9s91.6-18.4,130.8-41C-24-144.7-3.4-193.8,29-212.3S105.8-218.8,144.1-195.8z"/>
</g>
</svg>
