<?xml version="1.0" encoding="utf-8"?>
<!-- Generator: Adobe Illustrator 23.1.1, SVG Export Plug-In . SVG Version: 6.00 Build 0)  -->
<svg version="1.1" id="sundown" xmlns="http://www.w3.org/2000/svg" xmlns:xlink="http://www.w3.org/1999/xlink" x="0px" y="0px"
	 viewBox="0 0 600 600" style="enable-background:new 0 0 600 600;" xml:space="preserve">
<style type="text/css">
	.st0{fill:#FEB6B9;stroke:#FEB6B9;stroke-width:5;stroke-linecap:round;stroke-miterlimit:10;}
</style>
<g transform="translate(300,300)">
	<path class="st0 animation" d="M90.2-198.4c24.4,23.7,35,60.9,57.3,96.5c22.3,35.7,56.3,69.9,45.4,92.7C182,13.7,126.1,25.1,97.4,62.3
		c-28.7,37.3-30.3,100.3-57.1,134C13.4,230-38.6,234.5-69.8,207.4s-41.5-85.9-55.9-127.3c-14.4-41.5-32.8-65.6-48.8-97.4
		c-16.1-31.8-29.8-71.4-12.7-91.9s64.9-22.1,99.5-41.1s55.8-55.6,85.6-68.8C27.6-232.3,65.8-222.1,90.2-198.4z"/>
</g>
</svg>
