<?xml version="1.0" encoding="utf-8"?>
<!-- Generator: Adobe Illustrator 23.1.1, SVG Export Plug-In . SVG Version: 6.00 Build 0)  -->
<svg version="1.1" id="pink" xmlns="http://www.w3.org/2000/svg" xmlns:xlink="http://www.w3.org/1999/xlink" x="0px" y="0px"
	 viewBox="0 0 600 600" style="enable-background:new 0 0 600 600;" xml:space="preserve">
<style type="text/css">
	.st0{fill:#FEBAC4;stroke:#FEBAC4;stroke-width:5;stroke-linecap:round;stroke-miterlimit:10;}
</style>
<g transform="translate(300,300)">
	<path class="st0 animation" d="M152.3-190.2c22.8,29.9,14.6,92.7,14.4,138.3c-0.1,45.6,7.9,74.1,9.6,105.7c1.7,31.5-2.9,66.2-18.4,100.7
		c-15.4,34.6-41.8,69-68.2,54.5c-26.4-14.4-52.8-77.8-87.5-95.9c-34.7-18-77.7,9.1-114.9,8.1c-37.3-1.1-69-30.4-63.2-58.8
		c5.9-28.3,49.2-55.6,74.7-82.7s33.1-54,50.7-86.3s45.1-70,85.8-90.4C75.9-217.3,129.6-220.2,152.3-190.2z"/>
</g>
</svg>
