<?xml version="1.0" encoding="utf-8"?>
<!-- Generator: Adobe Illustrator 23.1.1, SVG Export Plug-In . SVG Version: 6.00 Build 0)  -->
<svg version="1.1" id="cupid" xmlns="http://www.w3.org/2000/svg" xmlns:xlink="http://www.w3.org/1999/xlink" x="0px" y="0px"
	 viewBox="0 0 600 600" style="enable-background:new 0 0 600 600;" xml:space="preserve">
<style type="text/css">
	.st0{fill:#FBB5E1;stroke:#FBB5E1;stroke-width:5;stroke-linecap:round;stroke-miterlimit:10;}
</style>
<g transform="translate(300,300)">
	<path class="animation st0" d="M76.8-160.3c41.6,1.5,94.6,10.4,111.5,38.4c17,28-2.1,75.2-27.5,108.1s-57.2,51.7-85.5,59.7
		S22.2,51.3-7.8,84.5s-65.1,102.3-94.6,112c-29.6,9.7-53.5-39.9-71.3-82.5s-29.5-78.2-13.7-105.2c15.8-26.9,59.1-45.2,68.2-84.9
		c9-39.8-16.2-101-6.2-116.9c10-16,55.3,13.4,92.9,25.2C5.2-156,35.3-161.9,76.8-160.3z"/>
</g>
</svg>
