<?xml version="1.0" encoding="utf-8"?>
<!-- Generator: Adobe Illustrator 23.1.1, SVG Export Plug-In . SVG Version: 6.00 Build 0)  -->
<svg version="1.1" id="froly" xmlns="http://www.w3.org/2000/svg" xmlns:xlink="http://www.w3.org/1999/xlink" x="0px" y="0px"
	 viewBox="0 0 600 600" style="enable-background:new 0 0 600 600;" xml:space="preserve">
<style type="text/css">
	.st0{fill:#F77676;stroke:#F77676;stroke-width:5;stroke-linecap:round;stroke-miterlimit:10;}
</style>
<g transform="translate(300,300)">
	<path class="st0 animation" d="M99.7-226.2c42.9,26.6,77.9,66.4,77.3,109.5c-0.7,43.1-37,89.4-58,128s-26.6,69.5-39.3,107
		C67,155.9,47.3,200.1,11.6,227.9c-35.6,27.9-87.3,39.4-123.9,19.6c-36.7-19.8-58.3-71-63.5-115.1s6-81.2,24.6-105.2
		c18.7-24,44.8-34.8,47.9-62.2c3.1-27.5-16.8-71.4-10.8-114.9c5.9-43.4,37.6-86.4,78.9-101.3C6-266,56.8-252.8,99.7-226.2z"/>
</g>
</svg>
