<?xml version="1.0" encoding="utf-8"?>
<!-- Generator: Adobe Illustrator 23.1.1, SVG Export Plug-In . SVG Version: 6.00 Build 0)  -->
<svg version="1.1" id="pig-pink" xmlns="http://www.w3.org/2000/svg" xmlns:xlink="http://www.w3.org/1999/xlink" x="0px" y="0px"
	 viewBox="0 0 600 600" style="enable-background:new 0 0 600 600;" xml:space="preserve">
<style type="text/css">
	.st0{fill:#FDCAE1;stroke:#FDCAE1;stroke-width:5;stroke-linecap:round;stroke-miterlimit:10;}
</style>
<g transform="translate(300,300)">
	<path class="st0 animation" d="M72-120.5c8.9,8.5,12.1,23.4,39,39.8s77.6,34.5,77.6,46.3s-50.7,17.5-77,39.7C85.2,27.6,83.3,66.4,63.8,94.7
		c-19.5,28.2-56.6,45.8-101.2,50.4c-44.7,4.5-96.8-3.9-125-34.3c-28.3-30.4-32.5-82.8-18.4-124.9c14-42,46.4-73.8,74.7-95.7
		c28.3-21.8,52.6-33.7,75.2-36c22.6-2.4,43.5,4.8,61.3,9.6C48.3-131.5,63.1-129.1,72-120.5z"/>
</g>
</svg>
