<?xml version="1.0" encoding="utf-8"?>
<!-- Generator: Adobe Illustrator 23.1.1, SVG Export Plug-In . SVG Version: 6.00 Build 0)  -->
<svg version="1.1" id="aquamarine" xmlns="http://www.w3.org/2000/svg" xmlns:xlink="http://www.w3.org/1999/xlink" x="0px" y="0px"
	 viewBox="0 0 600 600" style="enable-background:new 0 0 600 600;" xml:space="preserve">
<style type="text/css">
	.st0{fill:#70FAB1;stroke:#70FAB1;stroke-width:5;stroke-linecap:round;stroke-miterlimit:10;}
</style>
<g transform="translate(300,300)">
	<path class="st0 animation" d="M86.3-92.8c20.6,32.6,42.9,43.2,66.6,62.7s48.8,47.8,45.7,72.4c-3.1,24.6-34.4,45.4-57.3,75.7
		c-22.9,30.2-37.4,69.9-63.5,84.2c-26.1,14.2-64,3-78.7-28.2s-6.2-82.4-37-106.1c-30.8-23.8-100.8-20.1-134.6-41.4
		C-206.3,5.3-203.9-41-186.4-80.8c17.4-39.9,49.8-73.4,88.1-98c38.2-24.5,82.1-40.1,113.6-20.6C46.7-179.9,65.6-125.4,86.3-92.8z"/>
</g>
</svg>
