<?xml version="1.0" encoding="utf-8"?>
<!-- Generator: Adobe Illustrator 23.1.1, SVG Export Plug-In . SVG Version: 6.00 Build 0)  -->
<svg version="1.1" id="humming-bird" xmlns="http://www.w3.org/2000/svg" xmlns:xlink="http://www.w3.org/1999/xlink" x="0px"
	 y="0px" viewBox="0 0 600 600" style="enable-background:new 0 0 600 600;" xml:space="preserve">
<style type="text/css">
	.st0{fill:#D1F2F9;stroke:#D1F2F9;stroke-width:5;stroke-linecap:round;stroke-miterlimit:10;}
</style>
<g transform="translate(300,300)">
	<path class="st0 animation" d="M82-133.4c40.1-5.1,99.2-9.1,120.4,11.7s4.5,66.5-2.6,113.2c-7.2,46.8-4.8,94.7-23.7,133.6S117,194.1,71,210.5
		c-46.1,16.5-98,19.3-147.7,7.8c-49.7-11.5-97.1-37.4-114.3-78c-17.1-40.6-4-95.8-6.2-145.6c-2.2-49.9-19.8-94.3-14.6-137.9
		c5.1-43.7,32.9-86.5,72-81.8s89.5,56.9,125.2,79.9S42-128.3,82-133.4z"/>
</g>
</svg>
