<?xml version="1.0" encoding="utf-8"?>
<!-- Generator: Adobe Illustrator 23.1.1, SVG Export Plug-In . SVG Version: 6.00 Build 0)  -->
<svg version="1.1" id="aero-blue" xmlns="http://www.w3.org/2000/svg" xmlns:xlink="http://www.w3.org/1999/xlink" x="0px" y="0px"
	 viewBox="0 0 600 600" style="enable-background:new 0 0 600 600;" xml:space="preserve">
<style type="text/css">
	.st0{fill:#AEFBC4;stroke:#AEFBC4;stroke-width:5;stroke-linecap:round;stroke-miterlimit:10;}
</style>
<g transform="translate(300,300)">
	<path class="st0 animation" d="M95.6-136.9c26.3-3.5,53.5,12.2,46.8,33S95.2-57.3,83.7-32.4c-11.6,25,6,49,8.9,79c3,29.9-8.6,65.9-31.7,80.9
		c-23,14.9-57.5,8.8-101.2,8c-43.7-0.9-96.6,3.5-102.6-22.3S-108,31.5-108-14.3c0.1-45.8-40.6-81.5-31-90.7
		c9.5-9.1,69.5,8.1,104.1,15.4c34.5,7.3,43.7,4.6,61.1-8.2C43.6-110.5,69.2-133.3,95.6-136.9z"/>
</g>
</svg>
