<?xml version="1.0" encoding="utf-8"?>
<!-- Generator: Adobe Illustrator 23.1.1, SVG Export Plug-In . SVG Version: 6.00 Build 0)  -->
<svg version="1.1" id="seagull" xmlns="http://www.w3.org/2000/svg" xmlns:xlink="http://www.w3.org/1999/xlink" x="0px" y="0px"
	 viewBox="0 0 600 600" style="enable-background:new 0 0 600 600;" xml:space="preserve">
<style type="text/css">
	.st0{fill:#7BD2E8;stroke:#7BD2E8;stroke-width:5;stroke-linecap:round;stroke-miterlimit:10;}
</style>
<g transform="translate(300,300)">
	<path class="st0 animation" d="M128.5-207.9c27.8,20,33.5,72,40.8,115.3c7.3,43.4,16.2,78,13.9,112.7s-15.8,69.5-35.5,107.3
		c-19.7,37.7-45.7,78.4-80.6,88.5C32.2,226-11.6,205.5-39.1,176.2C-66.7,147-78,108.9-104.2,81.9c-26.2-27.1-67.3-43-77-67.5
		C-191-10-169.4-43-150-73.3c19.4-30.4,36.7-58.2,61.6-79.5c24.8-21.3,57.3-36.1,98.4-49.6C51-215.9,100.8-227.9,128.5-207.9z"/>
</g>
</svg>
