<?xml version="1.0" encoding="utf-8"?>
<!-- Generator: Adobe Illustrator 23.1.1, SVG Export Plug-In . SVG Version: 6.00 Build 0)  -->
<svg version="1.1" id="carnation" xmlns="http://www.w3.org/2000/svg" xmlns:xlink="http://www.w3.org/1999/xlink" x="0px" y="0px"
	 viewBox="0 0 600 600" style="enable-background:new 0 0 600 600;" xml:space="preserve">
<style type="text/css">
	.st0{fill:#F45E68;stroke:#F45E68;stroke-width:5;stroke-linecap:round;stroke-miterlimit:10;}
</style>
<g transform="translate(300,300)">
	<path class="st0 animation" d="M121.7-143.8c36.1,11.1,62.6,49,80.2,90.3c17.7,41.3,26.3,85.9,14.2,123.1c-12.2,37.2-45.1,67.1-81.5,75.2
		c-36.3,8.1-76-5.6-104.3-11.3c-28.4-5.7-45.4-3.4-60.3-8c-14.9-4.5-27.8-15.8-60.8-25.4c-33-9.7-86.3-17.7-112.4-44
		c-26.2-26.3-25.3-70.8,7.9-82.8c33.3-12,98.8,8.7,135.8-2c37-10.6,45.4-52.4,72.5-81.3C40-138.8,85.6-154.8,121.7-143.8z"/>
</g>
</svg>
