<?xml version="1.0" encoding="utf-8"?>
<!-- Generator: Adobe Illustrator 23.1.1, SVG Export Plug-In . SVG Version: 6.00 Build 0)  -->
<svg version="1.1" id="tickle-me-pink" xmlns="http://www.w3.org/2000/svg" xmlns:xlink="http://www.w3.org/1999/xlink" x="0px"
	 y="0px" viewBox="0 0 600 600" style="enable-background:new 0 0 600 600;" xml:space="preserve">
<style type="text/css">
	.st0{fill:#FC7796;stroke:#FC7796;stroke-width:5;stroke-linecap:round;stroke-miterlimit:10;}
</style>
<g transform="translate(300,300)">
	<path class="st0 animation" d="M73.6-158.6c18.9,38.2,18.3,80.9,47.2,117.8c28.8,36.9,87.3,68.1,88,93.8s-56.4,45.9-101.6,49
		C62,105.2,28.6,91.3-2.5,113.2c-31.1,22-59.9,79.9-99.1,101.3c-39.3,21.3-88.9,6.2-102.7-29.2s8.3-91,12-137.3
		c3.6-46.4-11.1-83.4-0.5-109.9c10.5-26.5,46.4-42.4,79-74.3c32.6-32,61.9-79.9,95.9-87.1C16.1-230.4,54.6-196.8,73.6-158.6z"/>
</g>
</svg>
