<?xml version="1.0" encoding="utf-8"?>
<!-- Generator: Adobe Illustrator 23.1.1, SVG Export Plug-In . SVG Version: 6.00 Build 0)  -->
<svg version="1.1" id="bittersweat" xmlns="http://www.w3.org/2000/svg" xmlns:xlink="http://www.w3.org/1999/xlink" x="0px"
	 y="0px" viewBox="0 0 600 600" style="enable-background:new 0 0 600 600;" xml:space="preserve">
<style type="text/css">
	.st0{fill:#FD6E6E;stroke:#FD6E6E;stroke-width:5;stroke-linecap:round;stroke-miterlimit:10;}
</style>
<g transform="translate(300,300)">
	<path class="st0 animation" d="M95.3-87.3c36.1,29.8,84,34.7,103.5,58.2s10.7,65.6,3.5,107.1c-7.1,41.6-12.5,82.7-37.1,102.2
		c-24.6,19.4-68.5,17.2-104.8,17s-65,1.8-100.3,2.2c-35.2,0.5-77-0.5-99-21.2c-22.1-20.8-24.4-61.2-37.9-104.7
		c-13.4-43.5-38.1-90-33.2-132.4c4.8-42.3,39.2-80.5,80.9-107.8s90.7-43.7,127.4-24.5C34.9-172,59.3-117.2,95.3-87.3z"/>
</g>
</svg>
