<?xml version="1.0" encoding="utf-8"?>
<!-- Generator: Adobe Illustrator 23.1.1, SVG Export Plug-In . SVG Version: 6.00 Build 0)  -->
<svg version="1.1" id="marnier" xmlns="http://www.w3.org/2000/svg" xmlns:xlink="http://www.w3.org/1999/xlink" x="0px" y="0px"
	 viewBox="0 0 600 600" style="enable-background:new 0 0 600 600;" xml:space="preserve">
<style type="text/css">
	.st0{fill:#277CDD;stroke:#277CDD;stroke-width:5;stroke-linecap:round;stroke-miterlimit:10;}
</style>
<g transform="translate(300,300)">
	<path class="st0 animation" d="M121.7-223.8c42,3.7,72.5,48.6,94.2,97.2c21.8,48.6,34.8,100.9,19,142.8s-60.4,73.4-97.1,106.5
		c-36.7,33.2-65.6,68.1-103.7,86s-85.5,18.9-133,9.6c-47.4-9.3-94.8-28.7-113.1-65s-7.4-89.4-11.4-138.4c-4.1-49-23.2-94-17.5-136.5
		c5.7-42.4,36.1-82.4,75.8-87.1c39.8-4.7,88.8,25.9,140.1,22.4C26.2-189.8,79.7-227.4,121.7-223.8z"/>
</g>
</svg>
