<?xml version="1.0" encoding="utf-8"?>
<!-- Generator: Adobe Illustrator 23.1.1, SVG Export Plug-In . SVG Version: 6.00 Build 0)  -->
<svg version="1.1" id="your-pink" xmlns="http://www.w3.org/2000/svg" xmlns:xlink="http://www.w3.org/1999/xlink" x="0px" y="0px"
	 viewBox="0 0 600 600" style="enable-background:new 0 0 600 600;" xml:space="preserve">
<style type="text/css">
	.st0{fill:#FEBCC0;stroke:#FEBCC0;stroke-width:5;stroke-linecap:round;stroke-miterlimit:10;}
</style>
<g transform="translate(300,300)">
	<path class="st0 animation" d="M117.6-146.2c38.6,24.7,90.7,28.3,90.8,49.4c0.1,21.2-51.8,59.9-76,90c-24.1,30-20.5,51.3-24.1,80
		c-3.5,28.8-14.3,65-42.6,100c-28.3,35.1-74.1,69-105.8,58.1c-31.6-10.9-49.1-66.6-72.7-108.7c-23.7-42.1-53.6-70.6-73.7-109.7
		c-20.1-39.2-30.3-89.1-13.3-126.5c17.1-37.3,61.5-62.2,104.3-85c42.7-22.8,83.8-43.6,116.8-30.9C54.3-216.9,79.1-171,117.6-146.2z"
		/>
</g>
</svg>
