<?xml version="1.0" encoding="utf-8"?>
<!-- Generator: Adobe Illustrator 23.1.1, SVG Export Plug-In . SVG Version: 6.00 Build 0)  -->
<svg version="1.1" id="lightning-yellow" xmlns="http://www.w3.org/2000/svg" xmlns:xlink="http://www.w3.org/1999/xlink" x="0px"
	 y="0px" viewBox="0 0 600 600" style="enable-background:new 0 0 600 600;" xml:space="preserve">
<style type="text/css">
	.st0{fill:#FDC221;stroke:#FDC221;stroke-width:5;stroke-linecap:round;stroke-miterlimit:10;}
</style>
<g transform="translate(300,300)">
	<path class="st0 animation" d="M30-15.5c26.7,18.9,79-3.8,118.4,2.8c39.4,6.5,65.9,42.4,46.7,61.1C176,67.2,111.3,68.8,78.6,87.7
		c-32.7,18.8-33.4,55-45.4,63.8c-12.1,8.8-35.6-9.7-48.2-29.7C-27.7,101.9-29.5,80.6-71.8,72c-42.4-8.7-125.2-4.6-129.5-13.7
		s70-31.5,95.7-71.1c25.6-39.7,2.7-96.8,12.4-123.3c9.7-26.6,52-22.7,73.8,9.4C2.3-94.6,3.4-34.3,30-15.5z"/>
</g>
</svg>
