<?xml version="1.0" standalone="no"?>
<svg
  width="600"
  height="600"
  viewBox="0 0 600 600"
  xmlns="http://www.w3.org/2000/svg"
>
  <g transform="translate(300,300)">
    <path d="M48.9,-109.8C60.8,-68.6,65.9,-50.5,78.4,-32.9C90.9,-15.3,110.8,1.7,117.4,23.2C124.1,44.6,117.6,70.4,105.2,99.3C92.8,128.1,74.6,160,46.1,177.9C17.7,195.7,-21,199.6,-40.9,176.7C-60.7,153.7,-61.7,104,-81.3,74.4C-100.9,44.7,-139,35.1,-137.8,21.8C-136.6,8.5,-96.1,-8.4,-88.6,-47C-81.1,-85.6,-106.8,-145.9,-97.6,-188.3C-88.3,-230.7,-44.2,-255.4,-12.8,-235.5C18.6,-215.5,37.1,-151.1,48.9,-109.8Z" fill="#abb8c3" />
  </g>
</svg>
  